<?xml version="1.0" standalone="no"?>
<!DOCTYPE svg PUBLIC "-//W3C//DTD SVG 20010904//EN"
 "http://www.w3.org/TR/2001/REC-SVG-20010904/DTD/svg10.dtd">
<svg version="1.0" xmlns="http://www.w3.org/2000/svg"
 width="880.000000pt" height="880.000000pt" viewBox="0 0 880.000000 880.000000"
 preserveAspectRatio="xMidYMid meet">
<metadata>
Created by potrace 1.14, written by Peter Selinger 2001-2017
</metadata>
<g transform="translate(0.000000,880.000000) scale(0.100000,-0.100000)"
fill="#000000" stroke="none">
<path d="M6555 7070 c5 -9 2 -10 -12 -6 -12 4 -25 1 -33 -9 -7 -8 -16 -12 -21
-9 -5 3 -9 0 -9 -7 0 -9 -3 -9 -14 0 -12 10 -17 8 -26 -9 -10 -18 -14 -19 -28
-8 -13 11 -14 11 -7 -1 6 -11 4 -13 -8 -8 -11 4 -14 2 -10 -9 3 -9 -2 -14 -17
-14 -16 0 -21 -4 -16 -16 6 -15 4 -15 -11 -3 -9 8 -14 9 -10 3 8 -13 -19 -27
-34 -18 -5 3 -9 2 -8 -3 1 -4 1 -14 0 -22 -1 -11 -4 -11 -18 0 -14 12 -16 12
-8 0 6 -11 4 -13 -11 -8 -18 7 -18 6 1 -9 20 -16 20 -16 -1 -10 -12 4 -28 0
-40 -10 -10 -8 -13 -12 -5 -8 9 5 12 3 7 -4 -4 -7 -14 -12 -23 -12 -9 0 -14
-2 -11 -5 7 -7 -115 -133 -124 -128 -5 2 -8 -3 -8 -11 0 -10 -9 -16 -22 -16
-15 0 -19 -3 -11 -8 8 -5 9 -13 3 -22 -8 -13 -10 -13 -10 -1 0 22 -13 4 -15
-22 -2 -12 -7 -21 -13 -20 -7 2 -9 -4 -5 -14 4 -9 2 -14 -3 -11 -5 3 -18 -4
-29 -15 -11 -11 -14 -17 -7 -13 21 12 13 -12 -13 -39 -15 -14 -20 -25 -13 -25
9 0 9 -3 -2 -10 -8 -5 -11 -10 -7 -10 5 0 2 -7 -7 -15 -8 -9 -12 -23 -9 -32 4
-11 3 -14 -5 -9 -7 4 -12 1 -12 -9 0 -9 -5 -13 -10 -10 -7 4 -9 -3 -6 -18 3
-19 -1 -26 -15 -30 -10 -3 -19 -1 -19 4 0 6 -8 5 -20 -1 -15 -8 -20 -8 -20 1
0 8 -5 7 -17 -2 -19 -16 -23 -16 -34 3 -7 10 -9 10 -9 -2 0 -12 -2 -12 -9 -1
-6 10 -13 11 -29 2 -15 -8 -23 -8 -28 1 -5 7 -3 8 7 3 12 -8 12 -6 0 8 -16 20
-22 22 -18 6 3 -18 -34 -19 -40 -1 -6 13 -8 13 -14 -4 -7 -17 -8 -17 -8 -1 -1
9 -6 17 -12 17 -5 0 -7 -6 -3 -12 6 -10 4 -10 -7 0 -7 6 -17 12 -22 12 -4 0
-5 -6 -1 -12 5 -9 2 -9 -9 1 -14 11 -20 11 -34 0 -11 -10 -14 -10 -9 -1 4 6 2
12 -3 12 -6 0 -11 -4 -11 -10 0 -6 -9 -6 -26 1 -23 8 -25 8 -15 -5 10 -12 9
-14 -6 -11 -10 1 -24 -2 -31 -8 -9 -7 -16 -7 -20 -1 -7 10 -49 11 -58 1 -3 -3
-17 -2 -30 3 -14 6 -26 6 -29 0 -4 -7 -13 -6 -25 0 -13 7 -20 6 -22 -2 -3 -9
-9 -8 -21 3 -9 9 -13 19 -10 23 4 3 1 6 -5 6 -7 0 -9 7 -5 17 5 12 2 15 -10
10 -12 -4 -15 -1 -12 14 2 10 -1 19 -7 19 -7 0 -6 5 1 14 9 11 9 16 0 22 -8 4
-9 3 -5 -4 4 -7 1 -12 -7 -12 -8 0 -14 8 -14 18 0 35 -3 43 -15 36 -6 -4 -8
-3 -4 4 3 5 0 13 -6 15 -10 4 -9 6 1 6 11 1 10 5 -4 21 -10 11 -22 17 -26 14
-5 -3 -6 1 -3 9 3 8 0 18 -5 22 -6 3 -8 12 -4 18 5 8 2 8 -9 -1 -13 -11 -15
-9 -10 15 2 16 1 25 -2 21 -10 -9 -48 30 -41 42 3 5 -4 7 -15 5 -11 -2 -18 0
-15 6 4 5 1 9 -5 9 -7 0 -10 7 -7 14 4 11 1 13 -10 9 -11 -4 -14 -2 -9 5 4 7
1 12 -9 12 -12 0 -15 5 -11 16 4 11 2 15 -6 11 -15 -5 -40 17 -31 27 4 3 -1 6
-10 6 -19 0 -49 39 -40 53 4 6 1 7 -7 2 -8 -5 -18 -1 -27 10 -8 12 -13 14 -13
5 0 -7 -10 -1 -23 13 -15 18 -30 25 -45 22 -20 -3 -21 -2 -10 18 10 20 10 21
-5 8 -12 -9 -17 -10 -17 -2 0 7 -4 10 -9 7 -5 -3 -12 6 -15 20 -7 25 -8 26
-21 8 -10 -13 -14 -15 -15 -5 0 7 -6 11 -15 7 -8 -3 -14 -2 -14 2 4 28 -1 34
-18 21 -14 -12 -16 -12 -8 0 6 11 4 13 -8 8 -9 -3 -16 -3 -16 1 3 20 -3 23
-18 11 -10 -9 -14 -9 -10 -2 12 19 -132 14 -162 -6 -14 -9 -33 -14 -43 -13
-10 2 -18 -2 -18 -8 0 -6 5 -8 13 -4 8 5 8 2 -2 -9 -7 -9 -20 -17 -28 -17 -8
0 -11 -4 -8 -10 6 -9 -8 -14 -28 -11 -5 1 -6 -3 -2 -9 3 -5 1 -10 -4 -10 -6 0
-11 -9 -11 -21 0 -13 -4 -18 -12 -13 -9 5 -9 2 1 -9 11 -14 11 -17 0 -18 -8
-1 -18 -1 -23 0 -5 1 -4 -4 3 -13 9 -10 9 -16 1 -21 -6 -4 -9 -13 -6 -21 3 -8
-1 -14 -8 -14 -9 0 -13 -9 -11 -26 1 -15 -3 -28 -11 -31 -8 -3 -11 -9 -8 -14
3 -5 1 -9 -4 -9 -5 0 -8 -12 -7 -27 1 -27 -14 -55 -26 -48 -3 2 -4 -17 -3 -43
1 -26 0 -41 -3 -34 -3 6 -9 12 -14 12 -6 0 -8 -3 -6 -7 3 -5 1 -17 -3 -28 -4
-11 -4 -34 0 -52 4 -18 5 -32 1 -31 -20 2 -29 -4 -26 -19 1 -10 -2 -23 -7 -30
-6 -7 -5 -14 2 -18 8 -5 8 -11 -1 -21 -9 -11 -8 -14 2 -14 12 0 12 -2 0 -9 -8
-5 -11 -16 -7 -26 5 -14 4 -16 -7 -7 -11 10 -14 3 -13 -36 0 -26 5 -50 10 -54
8 -5 7 -8 0 -8 -7 0 -15 -7 -18 -16 -3 -8 -2 -13 3 -9 5 3 8 -2 7 -11 -1 -8
-8 -19 -16 -24 -14 -9 -18 -119 -4 -141 4 -8 3 -10 -4 -5 -15 9 -15 1 -1 -26
8 -15 8 -19 0 -13 -8 4 -10 -3 -6 -25 3 -17 2 -36 -2 -43 -11 -17 -13 -38 -3
-32 11 7 7 -13 -10 -47 -10 -21 -10 -31 -1 -42 9 -11 9 -16 0 -22 -8 -4 -9 -3
-5 4 4 7 2 12 -3 12 -13 0 -14 -13 -4 -24 11 -11 10 -40 -2 -48 -6 -5 -5 -8 3
-8 6 0 12 -7 12 -16 0 -9 -5 -12 -12 -8 -7 4 -8 3 -4 -4 4 -7 15 -12 24 -12
13 0 14 -2 3 -9 -7 -5 -9 -11 -4 -14 11 -7 11 -36 0 -54 -4 -6 -2 -15 4 -19 8
-5 9 -3 4 6 -5 9 -4 11 4 6 7 -5 8 -13 4 -19 -11 -14 -8 -100 2 -118 5 -7 4
-10 -1 -6 -6 3 -10 -9 -10 -28 0 -19 4 -32 8 -29 4 3 5 -2 1 -11 -3 -10 0 -21
7 -25 9 -5 14 -31 16 -68 1 -33 4 -64 8 -70 3 -6 1 -14 -5 -18 -8 -4 -7 -9 2
-15 10 -6 10 -9 2 -9 -8 0 -11 -18 -10 -54 2 -47 1 -53 -12 -43 -12 9 -13 9
-7 0 4 -7 4 -13 -1 -13 -4 0 -7 -23 -6 -51 2 -41 0 -50 -12 -45 -8 3 -14 2
-14 -2 5 -29 -3 -62 -13 -59 -8 1 -13 -8 -12 -25 1 -15 -3 -25 -8 -22 -4 3 -5
11 -1 17 3 7 -3 3 -15 -7 -26 -22 -28 -30 -6 -22 9 3 12 2 9 -5 -4 -5 -15 -7
-26 -4 -11 4 -19 2 -19 -4 0 -6 -9 -11 -20 -11 -13 0 -20 -7 -20 -18 0 -10 -5
-23 -11 -29 -8 -8 -8 -13 0 -17 6 -4 11 -16 11 -27 0 -12 -4 -17 -11 -13 -7 4
-7 -1 1 -16 6 -12 17 -19 24 -17 13 5 15 -20 3 -40 -4 -6 -3 -14 3 -18 6 -4 8
-10 5 -15 -3 -4 2 -10 10 -13 8 -4 12 -15 10 -27 -2 -11 0 -18 6 -15 5 4 9 -1
9 -9 0 -8 8 -17 18 -19 16 -4 16 -5 -1 -6 -10 0 -16 -5 -12 -10 3 -5 -4 -16
-15 -24 -11 -7 -17 -17 -12 -22 4 -4 0 -6 -9 -3 -11 4 -15 0 -15 -16 1 -12 -4
-20 -11 -19 -7 2 -13 -2 -13 -7 0 -6 9 -10 19 -10 20 0 24 -29 6 -42 -6 -4 -2
-8 8 -8 9 0 17 -6 17 -14 0 -8 7 -17 16 -20 8 -3 12 -10 9 -16 -3 -5 -1 -10 4
-10 6 0 10 -3 10 -7 -3 -19 2 -34 9 -29 5 3 14 -4 22 -14 8 -10 17 -17 21 -14
4 2 5 -6 2 -18 -3 -17 -2 -19 5 -9 12 17 24 -1 16 -26 -3 -10 -2 -14 3 -8 10
12 33 18 32 7 -3 -20 2 -32 14 -29 6 1 11 -4 10 -10 -3 -12 9 -17 29 -14 4 0
5 -6 2 -14 -5 -11 -2 -13 12 -8 12 4 15 3 10 -5 -4 -7 -2 -12 4 -12 6 0 8 -5
4 -12 -5 -8 -2 -9 9 -5 10 4 16 2 14 -6 -1 -7 10 -13 26 -15 15 -2 25 -8 22
-13 -4 -5 1 -9 9 -9 8 0 21 -10 27 -22 8 -14 14 -18 17 -10 3 9 13 6 35 -10
17 -12 40 -22 52 -23 11 0 19 -6 17 -13 -1 -8 2 -11 8 -7 5 3 10 1 10 -5 0 -7
5 -8 17 -1 13 7 22 4 34 -11 10 -10 26 -18 36 -16 10 2 17 -2 16 -9 -2 -8 4
-10 14 -6 11 4 14 3 9 -5 -5 -8 -1 -10 10 -5 14 5 16 3 11 -11 -4 -10 -3 -15
3 -11 6 3 10 0 10 -7 0 -9 3 -9 10 2 8 13 10 12 10 -2 0 -10 4 -18 10 -18 6 0
5 -10 -2 -25 -7 -16 -14 -21 -18 -14 -5 6 -9 2 -13 -10 -3 -12 -11 -20 -17
-19 -7 2 -15 -3 -18 -11 -3 -9 0 -11 8 -6 8 5 11 4 6 -3 -3 -6 -17 -9 -31 -6
-19 3 -28 -2 -39 -23 -8 -16 -15 -24 -16 -20 0 4 -6 2 -14 -5 -8 -7 -12 -16
-9 -20 4 -8 -12 -12 -36 -9 -7 2 -11 -2 -8 -6 3 -5 -8 -15 -24 -22 -16 -7 -27
-17 -23 -22 3 -5 -2 -9 -11 -9 -10 0 -13 -5 -9 -12 4 -6 3 -9 -2 -6 -15 9 -54
-10 -54 -27 0 -8 -5 -15 -11 -15 -5 0 -7 6 -3 13 5 9 4 9 -6 0 -7 -6 -20 -9
-29 -6 -9 4 -13 3 -9 -2 15 -16 -13 -35 -33 -24 -11 5 -19 6 -18 2 3 -20 -2
-34 -11 -28 -5 3 -10 2 -10 -4 0 -6 -7 -8 -15 -5 -9 4 -18 -1 -21 -11 -5 -13
-9 -14 -15 -3 -6 9 -9 9 -9 1 0 -6 -9 -10 -19 -8 -14 3 -18 -1 -14 -11 3 -8
-1 -14 -10 -14 -19 0 -30 27 -14 34 7 2 4 5 -6 5 -10 1 -15 5 -12 11 3 6 0 10
-7 10 -9 0 -9 3 2 10 10 6 11 10 3 10 -8 0 -13 13 -13 30 0 19 -5 29 -12 27
-7 -1 -12 4 -11 11 2 6 -4 12 -13 12 -8 0 -13 3 -11 8 3 4 -1 12 -8 19 -11 10
-15 10 -18 0 -3 -7 -6 -2 -6 11 -1 12 -7 22 -16 22 -8 0 -15 5 -15 10 0 6 -7
10 -16 10 -9 0 -12 5 -8 13 6 10 4 10 -7 0 -7 -7 -18 -13 -23 -13 -6 0 -4 5 4
10 12 8 10 10 -8 10 -13 0 -20 4 -17 10 7 12 -8 14 -19 2 -11 -10 -30 -9 -37
1 -4 6 -13 6 -20 1 -21 -13 -39 -13 -39 -1 0 7 -5 5 -10 -3 -9 -13 -10 -13
-10 0 0 13 -1 13 -10 0 -8 -12 -10 -12 -10 -1 0 11 -3 11 -16 0 -11 -9 -17
-10 -23 -1 -4 7 -12 8 -20 2 -8 -4 -25 -4 -38 1 -13 5 -23 5 -23 -1 0 -5 -12
-5 -30 0 -19 5 -30 5 -30 -1 0 -6 -7 -6 -18 0 -13 7 -23 6 -30 -1 -8 -8 -12
-8 -12 -2 0 6 -7 11 -15 11 -8 0 -12 -4 -9 -9 3 -4 0 -8 -5 -8 -6 0 -11 5 -11
10 0 7 -6 8 -17 1 -10 -5 -26 -5 -40 0 -15 5 -23 5 -23 -2 0 -6 -6 -6 -19 0
-10 6 -21 7 -25 4 -12 -12 -36 -12 -36 0 0 7 -5 5 -10 -3 -9 -13 -10 -13 -10
0 0 13 -1 13 -10 0 -8 -12 -10 -12 -10 -1 0 11 -3 11 -16 0 -11 -9 -17 -10
-23 -1 -4 7 -12 8 -20 2 -8 -4 -25 -4 -38 1 -13 5 -23 5 -23 -1 0 -5 -12 -5
-30 0 -19 5 -30 5 -30 -1 0 -6 -7 -6 -18 0 -13 7 -23 6 -30 -1 -8 -8 -12 -8
-12 -2 0 6 -7 11 -15 11 -8 0 -12 -4 -9 -9 3 -4 0 -8 -5 -8 -6 0 -11 5 -11 10
0 7 -6 8 -17 1 -10 -5 -26 -5 -40 0 -15 5 -23 5 -23 -2 0 -6 -6 -6 -19 0 -10
6 -21 7 -25 4 -12 -12 -36 -12 -36 0 0 7 -5 5 -10 -3 -9 -13 -10 -13 -10 0 0
13 -1 13 -10 0 -8 -12 -10 -12 -10 -1 0 11 -3 11 -16 0 -11 -9 -17 -10 -23 -1
-4 7 -12 8 -20 2 -8 -4 -25 -4 -38 1 -12 5 -23 5 -23 1 0 -4 -11 -7 -24 -7
-13 0 -22 3 -19 8 2 4 -1 7 -6 7 -6 0 -11 -5 -11 -10 0 -7 -6 -7 -18 -1 -13 7
-23 6 -30 -1 -9 -9 -12 -9 -12 0 0 10 -5 10 -20 2 -14 -8 -20 -8 -20 0 0 7 -6
8 -17 1 -10 -5 -26 -5 -40 0 -15 5 -23 5 -23 -2 0 -6 -6 -6 -19 0 -10 6 -21 7
-25 4 -12 -12 -36 -12 -36 0 0 7 -5 5 -10 -3 -9 -13 -10 -13 -10 0 0 13 -1 13
-10 0 -8 -12 -10 -12 -10 -1 0 11 -3 11 -16 0 -11 -9 -17 -10 -23 -1 -4 7 -12
8 -20 2 -8 -4 -25 -4 -38 1 -13 5 -23 5 -23 -1 0 -5 -12 -5 -30 0 -19 5 -30 5
-30 -1 0 -6 -7 -6 -18 0 -13 7 -23 6 -30 -1 -9 -9 -12 -9 -12 0 0 10 -5 10
-20 2 -14 -8 -20 -8 -20 0 0 7 -6 8 -17 1 -10 -5 -26 -5 -40 0 -15 5 -23 5
-23 -2 0 -6 -6 -6 -19 0 -10 6 -21 7 -25 4 -12 -12 -36 -12 -36 0 0 7 -5 5
-10 -3 -9 -13 -10 -13 -10 0 0 13 -1 13 -10 0 -7 -11 -10 -11 -10 -2 0 10 -5
10 -20 2 -14 -8 -20 -8 -20 0 0 7 -6 8 -17 1 -10 -5 -26 -5 -40 0 -14 5 -23 5
-23 -1 0 -5 -12 -5 -30 0 -19 5 -30 5 -30 -1 0 -6 -7 -6 -18 0 -13 7 -23 6
-30 -1 -9 -9 -12 -9 -12 0 0 10 -5 10 -20 2 -13 -7 -20 -7 -20 -1 0 7 -9 7
-26 1 -14 -6 -31 -7 -37 -3 -6 4 -8 0 -4 -9 4 -11 0 -15 -11 -13 -9 1 -20 -3
-24 -9 -5 -7 -8 -6 -8 4 0 8 -6 4 -13 -10 -7 -14 -20 -24 -28 -24 -11 1 -14
-6 -11 -22 2 -14 0 -24 -7 -24 -7 0 -9 -4 -6 -10 3 -5 2 -10 -2 -10 -7 0 -9
-41 -3 -60 1 -3 1 -35 0 -72 -1 -56 1 -68 15 -68 11 0 14 -7 11 -25 -3 -13 0
-27 5 -30 5 -4 5 -13 -1 -25 -7 -13 -5 -21 8 -31 16 -13 16 -12 2 6 -10 15
-10 17 0 8 17 -16 24 -66 7 -56 -9 5 -9 3 -1 -8 6 -8 10 -24 8 -36 -2 -12 1
-25 8 -29 7 -5 8 -3 3 7 -8 12 -6 12 9 0 12 -10 14 -16 5 -21 -6 -4 -7 -10 -3
-13 5 -3 9 -26 8 -52 -1 -44 1 -46 14 -29 11 14 13 15 9 3 -3 -9 -1 -21 5 -27
8 -8 8 -16 -2 -27 -10 -12 -10 -15 1 -15 11 0 11 -2 1 -9 -10 -6 -10 -10 3
-21 9 -7 14 -19 11 -27 -3 -7 -1 -13 4 -13 4 0 8 -24 7 -52 -1 -37 2 -52 11
-50 12 2 16 -18 14 -65 -1 -13 4 -23 10 -23 9 0 9 -3 0 -12 -7 -7 -12 -17 -12
-22 0 -6 4 -4 10 4 12 19 20 9 25 -29 3 -21 1 -29 -7 -25 -7 5 -8 3 -2 -7 9
-14 10 -19 13 -40 0 -5 7 -7 14 -3 8 5 8 2 -2 -9 -12 -15 -11 -17 5 -18 11 0
15 -2 9 -5 -12 -5 -12 -71 0 -82 5 -4 5 -1 1 6 -4 6 -5 12 -2 12 3 0 13 -14
22 -31 8 -17 12 -29 6 -26 -5 4 -9 -7 -9 -23 0 -17 4 -30 9 -30 5 0 7 -4 4 -9
-4 -5 -1 -11 4 -13 16 -5 19 -41 6 -57 -8 -11 -8 -13 1 -8 9 6 11 -2 9 -28 -2
-19 -1 -33 3 -31 4 3 13 1 21 -5 8 -5 11 -9 5 -9 -5 0 -10 -13 -10 -29 0 -16
3 -27 6 -25 4 2 9 -3 13 -11 3 -8 0 -17 -6 -21 -7 -5 -8 -2 -3 6 6 9 4 11 -4
6 -14 -9 -6 -21 12 -21 7 0 12 -7 12 -15 0 -8 4 -21 9 -29 5 -8 3 -17 -5 -23
-11 -7 -11 -11 -1 -15 6 -2 9 -10 6 -15 -4 -6 1 -17 11 -25 11 -7 13 -13 6
-13 -8 0 -7 -5 4 -16 12 -12 13 -19 5 -24 -15 -9 -13 -17 13 -59 17 -29 18
-34 4 -28 -9 3 -19 1 -23 -5 -4 -6 -3 -8 4 -4 6 3 13 2 17 -4 3 -5 -1 -10 -9
-10 -9 0 -15 -6 -14 -12 2 -7 -2 -12 -9 -11 -6 1 -14 -4 -17 -12 -3 -8 -2 -15
3 -15 4 0 8 -7 8 -15 0 -8 -4 -12 -7 -10 -4 3 -7 -6 -7 -20 0 -14 4 -22 10
-18 6 4 7 1 1 -8 -12 -20 -14 -39 -3 -39 4 0 6 -7 2 -15 -7 -19 25 -45 46 -37
9 3 12 1 8 -5 -5 -8 2 -9 20 -4 20 5 32 3 41 -8 8 -9 11 -11 8 -5 -3 7 5 14
19 16 13 3 22 2 20 -3 -3 -4 -1 -10 5 -14 5 -3 10 0 10 7 0 9 3 9 10 -2 5 -8
10 -10 10 -4 0 16 71 16 89 1 12 -10 13 -9 6 3 -4 8 -5 12 0 8 4 -4 14 -3 22
4 11 9 13 8 11 -2 -2 -7 3 -15 11 -18 10 -3 12 0 8 11 -4 11 -2 14 8 10 8 -3
12 -10 9 -15 -4 -6 3 -5 15 1 16 9 21 9 22 -1 0 -7 4 -4 9 7 5 11 9 14 9 7 1
-7 6 -10 13 -6 8 5 9 2 4 -11 -5 -15 -4 -16 9 -5 8 7 12 17 9 24 -3 6 1 3 9
-7 11 -13 16 -15 20 -5 4 11 8 11 27 0 15 -10 20 -10 15 -1 -5 7 -3 10 6 7 8
-3 24 -1 37 3 12 5 22 5 22 0 0 -5 7 -12 16 -15 14 -5 15 -4 5 8 -10 12 -9 14
8 9 12 -3 18 -10 15 -17 -3 -6 2 -2 10 8 12 15 16 16 16 5 0 -12 2 -12 10 1 9
14 14 7 11 -15 -1 -5 6 -1 14 9 15 20 15 20 15 0 0 -16 2 -16 10 -4 8 13 13
13 31 2 15 -10 19 -10 13 -1 -5 9 -1 11 14 7 12 -4 22 -2 22 4 0 5 5 6 10 3 6
-4 7 -12 3 -18 -5 -8 -2 -8 9 1 8 7 24 9 33 5 13 -4 16 -3 10 6 -6 10 -3 11
12 2 11 -6 23 -8 26 -4 4 3 13 0 22 -7 13 -11 14 -10 9 5 -5 11 -3 16 3 12 17
-11 63 -16 63 -7 0 5 7 7 15 4 8 -4 12 -11 9 -18 -3 -6 2 -2 10 8 9 11 16 16
16 10 0 -5 18 -9 40 -9 22 0 40 4 40 9 0 5 8 2 17 -5 14 -12 16 -12 8 0 -6 10
-4 12 6 5 8 -4 27 -7 43 -5 21 2 26 -1 21 -11 -3 -7 1 -4 9 6 9 11 16 15 16
10 0 -5 9 -10 20 -10 11 0 20 5 20 11 0 6 3 7 8 0 9 -12 52 -15 52 -3 0 5 9 4
20 -2 14 -8 20 -8 20 0 0 6 5 8 11 4 13 -8 169 -8 176 0 3 3 14 1 24 -5 13 -7
19 -6 19 1 0 6 5 8 11 5 16 -11 129 -11 129 -1 0 6 6 1 14 -9 13 -18 13 -18
24 1 6 10 12 15 12 9 0 -5 24 -10 52 -10 29 0 56 5 60 10 5 6 8 4 8 -5 0 -13
1 -13 10 0 5 8 10 11 10 5 0 -6 27 -10 60 -10 33 0 60 4 60 8 0 5 5 5 11 2 17
-11 159 -11 159 0 0 6 5 3 10 -5 9 -13 10 -13 10 0 0 9 3 11 8 5 9 -13 42 -16
42 -4 0 6 9 5 20 -1 14 -8 20 -8 20 0 0 6 5 8 11 4 18 -10 119 -10 119 1 0 6
5 3 10 -5 9 -13 10 -13 10 0 0 9 3 11 8 5 9 -12 62 -14 62 -3 0 5 9 4 20 -2
11 -6 20 -7 20 -1 0 5 14 6 35 1 24 -5 35 -4 35 4 0 7 3 7 8 1 10 -14 32 -17
32 -5 0 7 6 7 18 1 10 -5 24 -6 32 -1 8 5 22 4 32 -1 12 -7 18 -6 18 1 0 6 5
8 11 5 17 -11 129 -11 129 0 0 6 5 3 10 -5 9 -13 10 -13 10 0 0 13 1 13 10 0
9 -13 10 -13 10 0 0 9 3 11 8 5 9 -13 42 -16 42 -4 0 6 9 5 20 -1 11 -6 20 -7
20 -1 0 5 14 6 35 1 24 -5 35 -4 35 4 0 6 5 4 10 -4 9 -13 10 -13 10 0 0 13 1
13 10 0 6 -9 10 -10 10 -3 0 8 9 9 32 2 41 -11 41 -11 32 2 -4 8 0 8 15 0 15
-8 21 -9 21 -1 0 6 5 8 11 5 17 -11 129 -11 129 0 0 6 5 3 10 -5 9 -13 10 -13
10 0 0 13 1 13 10 0 9 -13 10 -13 10 0 0 9 3 11 8 5 9 -13 42 -16 42 -4 0 6 9
5 20 -1 15 -8 20 -8 20 2 0 9 3 9 10 -2 7 -11 10 -11 10 -2 0 10 5 10 21 1 17
-9 20 -8 14 2 -6 8 -4 10 5 4 14 -9 138 -10 147 -1 3 3 14 1 24 -5 13 -7 19
-6 19 1 0 8 6 8 20 0 14 -8 20 -8 20 0 0 6 5 8 10 5 16 -10 140 -11 140 -1 0
5 7 3 15 -4 12 -10 15 -10 15 1 0 11 2 11 10 -1 7 -11 10 -11 10 -2 0 10 5 10
20 2 14 -8 20 -8 20 0 0 6 5 8 11 5 12 -8 99 -12 99 -5 0 3 36 4 80 4 57 -1
78 2 73 10 -4 6 2 4 12 -4 17 -14 18 -13 12 2 -5 13 -1 16 19 12 19 -3 24 -1
18 8 -6 10 -4 10 7 2 16 -12 29 -12 48 0 9 6 12 5 8 0 -3 -5 2 -10 12 -10 10
0 18 7 17 16 -1 11 8 14 33 13 22 -1 40 4 49 15 9 12 12 13 7 2 -5 -12 -4 -12
7 1 9 11 21 13 40 8 15 -4 27 -4 26 -1 -1 4 2 15 7 25 6 15 10 15 23 5 13 -11
15 -10 9 6 -7 17 -6 17 10 5 9 -8 14 -9 10 -3 -4 7 5 19 19 29 18 11 24 13 18
4 -4 -8 6 1 23 19 17 17 36 32 43 32 7 0 10 7 7 14 -4 11 -1 13 10 9 12 -5 15
-2 10 10 -4 12 -1 15 14 12 15 -3 19 0 15 10 -3 9 0 12 10 8 7 -3 14 0 14 7 0
9 4 9 17 -1 10 -8 14 -9 10 -2 -4 6 -2 15 4 19 8 5 9 3 5 -5 -5 -8 0 -14 13
-18 12 -3 21 -10 21 -16 0 -6 3 -7 7 -4 3 4 13 1 21 -6 13 -10 15 -9 8 3 -4 8
0 6 8 -5 9 -11 26 -19 39 -19 12 0 28 -9 35 -20 13 -20 13 -20 7 -1 -5 15 -3
17 6 8 6 -6 18 -9 27 -6 11 5 13 2 7 -6 -6 -10 -3 -11 13 -2 14 8 23 8 27 1 5
-8 11 -8 20 0 10 8 15 8 20 0 5 -8 10 -8 20 0 10 8 14 7 18 -2 4 -11 6 -11 6
0 1 10 6 10 22 1 12 -6 19 -7 15 -1 -3 5 6 10 19 10 14 0 25 -5 25 -11 0 -6 3
-7 6 -4 4 4 2 12 -4 19 -8 10 -1 14 30 16 22 1 47 9 55 17 8 8 23 15 33 15 10
0 21 7 24 16 3 8 10 12 16 9 6 -4 7 1 3 12 -3 10 -3 15 2 11 4 -4 19 7 34 26
14 18 32 31 40 28 8 -3 11 0 8 6 -4 5 3 12 14 15 16 4 20 11 15 24 -4 9 -4 14
0 10 11 -10 35 13 27 27 -3 6 -3 8 1 4 10 -8 56 31 56 48 0 7 4 16 10 19 6 4
7 -1 4 -12 -6 -15 -4 -15 9 2 11 15 12 22 4 27 -9 6 -8 8 1 8 7 0 10 5 7 10
-3 6 1 10 9 10 10 0 13 6 9 17 -4 10 -2 14 4 10 12 -7 27 20 24 41 -2 11 11
16 32 13 4 -1 3 8 -3 19 -8 14 -8 20 0 20 6 0 8 5 5 10 -4 6 -1 9 7 8 8 -2 12
4 10 16 -2 10 1 15 6 12 6 -3 8 2 5 13 -3 10 1 22 8 26 8 6 10 4 4 -6 -5 -8
-4 -11 1 -6 5 5 10 22 10 38 2 46 3 49 16 46 8 -1 11 9 10 28 -2 21 4 37 17
49 11 10 17 24 14 30 -11 17 -12 36 -3 36 9 0 8 19 -3 37 -4 6 -1 14 5 16 10
4 9 8 -2 16 -12 8 -12 11 -1 11 8 0 11 7 8 19 -3 13 -1 18 8 14 11 -4 13 18
12 107 -1 62 2 114 7 118 5 3 6 -1 1 -8 -6 -9 -4 -11 4 -6 7 5 10 14 7 21 -2
7 2 16 11 19 10 4 12 10 6 19 -14 17 -8 73 7 69 8 -2 11 4 7 18 -3 12 -1 18 5
14 6 -4 8 6 5 26 -5 28 -4 30 11 18 12 -10 14 -10 8 0 -4 6 -3 12 1 12 5 0 9
12 8 28 0 20 5 27 18 26 13 -2 15 1 7 11 -8 10 -7 14 2 18 10 4 10 6 1 6 -7 1
-13 6 -13 12 0 5 3 8 8 6 4 -2 18 8 32 21 14 14 20 22 13 18 -9 -5 -9 -2 0 16
26 48 29 51 38 37 6 -9 8 -5 5 14 -3 19 0 30 10 34 8 3 14 11 14 19 0 8 4 13
9 11 5 -1 9 2 9 6 1 5 10 17 21 26 12 10 21 25 21 32 0 11 2 11 10 -1 8 -13
10 -12 10 3 0 29 1 31 18 50 8 10 21 16 28 13 8 -3 11 2 9 15 -4 17 -2 19 10
9 12 -10 15 -9 15 3 0 9 5 19 12 23 7 4 8 3 4 -4 -5 -8 -2 -10 8 -6 9 3 16 13
16 21 0 10 6 13 16 9 16 -6 12 4 -15 39 -10 13 -11 16 -1 8 8 -7 18 -13 24
-13 5 0 1 6 -9 14 -13 9 -27 11 -42 5 -17 -6 -21 -5 -17 5 3 7 -2 16 -10 19
-11 4 -16 1 -17 -11 0 -14 -2 -14 -7 -2 -8 17 -82 22 -82 5 0 -5 -7 -1 -15 9
-9 12 -15 14 -15 7 0 -9 -12 -12 -40 -8 -22 2 -40 0 -40 -5 0 -5 -5 -6 -11 -3
-18 12 -79 8 -95 -6 -17 -14 -64 -19 -64 -6 0 4 -4 5 -10 2 -6 -3 -7 1 -4 9 3
9 10 13 15 10 5 -3 10 2 10 10 3 37 5 41 21 40 10 -1 17 1 16 5 0 3 0 15 1 26
1 17 3 18 11 5 8 -13 10 -12 10 3 0 27 1 31 21 56 10 13 16 28 12 35 -4 6 1 5
10 -2 14 -12 16 -11 12 6 -2 11 4 27 14 36 11 10 17 29 16 50 0 19 3 32 7 30
4 -3 8 0 8 6 0 6 4 9 9 5 10 -6 7 27 -4 45 -3 6 2 10 12 10 11 0 14 3 7 8 -9
5 -13 57 -5 57 2 0 4 8 6 18 2 9 -1 15 -6 11 -5 -3 -9 0 -9 5 0 6 4 11 8 11 5
0 9 7 9 15 0 8 -4 12 -9 9 -13 -8 -10 10 5 25 6 8 7 11 1 8 -7 -4 -12 6 -13
26 -1 18 -3 38 -3 45 -1 6 -7 12 -14 12 -8 0 -11 6 -8 15 6 16 -11 37 -38 48
-10 3 -18 14 -18 23 0 10 -5 14 -15 10 -10 -3 -15 1 -16 12 0 14 -2 14 -9 -3
-8 -18 -10 -16 -14 14 0 5 -5 13 -10 18 -5 5 -6 3 -2 -4 5 -9 0 -13 -13 -13
-12 0 -21 5 -21 11 0 5 -4 7 -10 4 -5 -3 -10 2 -10 12 0 14 -2 15 -9 4 -7 -11
-9 -11 -14 0 -5 12 -6 12 -6 0 -1 -10 -4 -11 -15 -2 -10 9 -16 9 -21 1 -5 -8
-11 -8 -21 1 -11 9 -14 8 -14 -6 0 -10 -3 -15 -7 -12 -3 4 -13 1 -21 -6 -13
-10 -14 -9 -7 3 7 12 6 13 -6 4 -8 -6 -28 -10 -46 -9 -18 0 -30 -1 -28 -3 2
-2 -2 -10 -8 -17 -14 -14 -40 -8 -30 8 3 5 1 7 -5 4 -5 -4 -17 -4 -26 -1 -13
5 -14 9 -5 20 6 8 8 14 3 14 -17 1 -51 36 -59 59 -5 18 -4 22 6 16 9 -6 11 -3
5 10 -5 14 -4 15 7 7 10 -9 13 -5 11 19 -2 23 1 29 12 25 8 -3 12 -1 9 4 -3 5
-1 19 5 30 8 15 8 20 -2 20 -10 0 -10 2 1 9 11 7 11 9 0 14 -8 3 -3 6 11 6 20
1 22 3 10 11 -13 9 -13 10 0 10 13 0 13 1 0 10 -14 9 -7 14 13 11 4 -1 4 7 -1
16 -5 10 -8 32 -7 50 1 18 -2 30 -6 27 -4 -2 -11 0 -14 6 -5 8 -11 7 -21 -1
-9 -7 -14 -8 -13 -3 4 22 -2 34 -17 34 -10 0 -14 6 -10 15 3 8 2 14 -2 14 -20
-3 -32 3 -32 16 0 8 -7 15 -16 15 -10 0 -13 6 -9 18 3 12 -4 30 -17 47 -13 16
-17 26 -10 21 15 -9 16 6 0 22 -9 9 -9 12 2 12 10 0 9 5 -4 19 -11 12 -14 21
-7 26 6 3 11 12 10 18 0 9 -2 9 -6 0 -10 -26 -19 -12 -19 30 -1 24 -3 51 -7
60 -4 10 -3 17 1 17 4 0 7 17 7 38 0 20 4 43 10 51 7 11 7 13 -2 7 -9 -5 -11
-2 -7 8 3 9 10 13 15 10 5 -3 6 3 2 12 -4 10 -2 15 4 11 11 -7 11 22 -1 41 -4
7 -2 12 5 12 8 0 9 4 0 13 -8 10 -7 17 1 25 9 9 9 12 -1 12 -10 0 -11 3 -2 13
8 10 7 17 -1 25 -9 9 -9 12 2 12 11 0 11 3 2 12 -9 9 -7 14 5 23 13 10 13 14
3 20 -9 6 -11 4 -5 -5 5 -9 4 -11 -4 -6 -9 6 -9 11 -1 21 8 10 8 15 -1 21 -9
5 -7 11 7 21 10 8 18 16 17 18 -2 3 -3 6 -2 8 1 1 2 17 4 34 2 21 -1 30 -8 26
-6 -4 -7 -1 -2 7 12 20 15 81 3 74 -6 -4 -5 2 1 15 9 16 9 21 0 21 -7 0 -4 9
7 21 12 13 14 19 5 17 -7 -2 -16 3 -19 11 -2 8 0 11 5 8 5 -3 10 3 10 14 2 17
-1 18 -13 8 -12 -10 -13 -9 -8 6 4 10 1 21 -7 26 -10 6 -10 9 -2 9 7 0 10 7 6
17 -5 12 -3 14 8 9 8 -4 6 -1 -4 7 -13 11 -15 16 -5 19 11 4 10 8 -1 21 -10
13 -10 17 -1 17 10 0 10 3 0 15 -8 10 -9 15 -1 15 7 0 8 8 1 26 -7 18 -7 23 1
18 8 -4 8 -1 1 13 -7 12 -7 25 -1 36 6 9 6 17 1 17 -5 0 -9 7 -9 15 0 8 5 15
11 15 6 0 4 4 -4 10 -8 5 -11 12 -7 16 4 4 1 14 -6 22 -6 8 -13 40 -14 71 -1
31 -2 59 -2 64 -1 4 -9 7 -18 7 -15 0 -16 2 -3 10 12 8 12 10 -5 10 -17 0 -17
2 -5 10 12 7 13 13 3 28 -9 15 -9 22 0 31 8 8 8 11 -1 11 -7 0 -12 9 -12 21 0
11 -4 18 -9 14 -11 -6 -7 28 5 47 4 7 3 8 -4 4 -7 -4 -12 -1 -12 9 0 9 -7 23
-15 31 -17 17 -20 34 -6 34 8 0 8 21 1 40 -1 3 -2 8 -1 13 0 4 -6 7 -15 7 -10
0 -14 6 -10 15 3 8 1 15 -5 15 -6 0 -8 4 -5 9 8 12 -4 42 -14 36 -4 -2 -7 6
-7 18 -1 41 -3 48 -13 42 -9 -5 -16 32 -11 58 1 5 -4 5 -10 1 -8 -5 -10 -2 -6
8 6 18 -46 71 -59 60 -5 -4 -3 0 4 10 11 14 10 17 -7 23 -12 3 -21 11 -21 16
0 6 -4 8 -9 5 -9 -6 -26 22 -22 38 1 5 -5 4 -13 -4 -9 -7 -16 -8 -16 -3 0 5
-27 10 -60 11 -33 0 -65 4 -72 8 -7 5 -8 3 -3 -6z m470 -830 c3 -5 1 -10 -4
-10 -6 0 -11 5 -11 10 0 6 2 10 4 10 3 0 8 -4 11 -10z m-3042 -395 c-3 -9 -8
-14 -10 -11 -3 3 -2 9 2 15 9 16 15 13 8 -4z m3657 -1891 c0 -8 -19 -13 -24
-6 -3 5 1 9 9 9 8 0 15 -2 15 -3z m-3073 -937 c-1 -7 -6 -15 -12 -19 -6 -5 -4
-8 4 -8 11 0 9 -4 -5 -15 -18 -15 -18 -15 0 -8 13 4 17 3 12 -5 -4 -7 -15 -12
-24 -12 -13 0 -13 -2 4 -16 10 -8 14 -13 7 -10 -6 4 -14 2 -18 -4 -3 -5 -1
-10 6 -10 10 0 10 -3 1 -12 -14 -14 -16 -32 -4 -24 5 3 9 -1 9 -9 0 -8 -3 -15
-7 -15 -3 0 -6 -13 -5 -30 0 -16 2 -30 5 -30 3 0 5 -11 5 -24 0 -13 -3 -22 -7
-19 -5 2 -8 -1 -8 -6 0 -6 5 -11 10 -11 6 0 9 -6 8 -12 -2 -7 4 -12 12 -10 10
1 9 -2 -4 -13 -18 -14 -18 -15 -2 -15 9 0 15 -4 11 -10 -3 -5 -12 -7 -21 -3
-8 3 -14 2 -13 -3 4 -21 -2 -34 -15 -34 -8 0 -17 -7 -20 -16 -5 -12 -3 -14 7
-8 7 5 5 2 -5 -7 -9 -9 -14 -19 -11 -23 4 -3 -1 -6 -11 -6 -9 0 -15 -4 -12 -8
3 -5 -1 -9 -9 -9 -8 0 -15 4 -15 9 0 5 -5 6 -10 3 -6 -4 -9 -3 -8 2 2 4 -7 18
-18 29 -17 17 -25 19 -40 11 -17 -9 -17 -9 -6 5 11 14 10 16 -7 11 -13 -3 -21
-1 -21 6 0 7 6 9 13 5 6 -4 8 -3 4 1 -10 11 -39 16 -32 6 2 -4 -2 -8 -10 -8
-8 0 -12 4 -9 9 5 7 -10 12 -28 9 -5 0 -8 4 -8 10 0 6 -7 9 -15 6 -8 -4 -17
-2 -21 4 -4 7 -10 6 -19 -1 -9 -8 -15 -8 -20 0 -4 6 -13 7 -23 1 -19 -10 -42
-4 -42 10 0 6 5 7 11 3 7 -4 7 1 -1 16 -8 15 -8 20 -1 16 10 -7 16 6 12 27 -1
5 3 6 9 2 6 -3 8 -12 4 -18 -3 -7 2 -3 10 8 12 14 26 18 54 16 25 -1 43 3 51
13 8 9 25 16 38 16 19 0 24 4 19 16 -5 14 -4 15 9 4 11 -9 15 -9 15 -1 0 7 5
9 10 6 9 -6 14 7 11 27 0 4 7 4 16 1 10 -4 14 -2 10 4 -6 10 19 28 35 25 4 -1
5 5 2 13 -4 10 0 15 11 15 9 0 13 5 10 10 -3 6 1 10 10 10 9 0 14 4 11 9 -4 5
0 12 6 14 10 4 9 8 -2 16 -11 8 -12 11 -2 11 8 0 10 5 6 13 -6 9 -4 9 8 -1 13
-10 18 -10 24 -1 5 8 3 10 -7 4 -8 -5 -1 4 14 18 15 15 25 32 22 37 -3 6 1 7
9 4 9 -3 14 -11 13 -17z m2913 -441 c0 -2 -6 -9 -14 -15 -11 -9 -16 -9 -22 0
-4 8 -3 9 4 5 7 -4 12 -2 12 3 0 6 5 11 10 11 6 0 10 -2 10 -4z m-5970 -296
c0 -5 -2 -10 -4 -10 -3 0 -8 5 -11 10 -3 6 -1 10 4 10 6 0 11 -4 11 -10z
m5520 -360 c0 -5 -5 -10 -11 -10 -5 0 -7 5 -4 10 3 6 8 10 11 10 2 0 4 -4 4
-10z m-5456 -246 c5 -14 4 -15 -9 -4 -17 14 -19 20 -6 20 5 0 12 -7 15 -16z"/>
<path d="M4316 7053 c-6 -14 -5 -15 5 -6 7 7 10 15 7 18 -3 3 -9 -2 -12 -12z"/>
<path d="M6490 7059 c0 -5 5 -7 10 -4 6 3 10 8 10 11 0 2 -4 4 -10 4 -5 0 -10
-5 -10 -11z"/>
<path d="M2339 6105 c-1 -5 -1 -13 0 -17 0 -4 -7 -4 -16 -1 -11 5 -14 3 -8 -6
6 -10 3 -11 -13 -2 -14 8 -23 8 -27 1 -5 -8 -12 -7 -23 2 -12 10 -14 10 -8 1
4 -8 1 -13 -9 -13 -9 0 -14 -4 -11 -9 8 -12 -19 -22 -30 -11 -5 4 -18 -1 -29
-13 -11 -11 -14 -16 -6 -12 10 6 12 4 6 -4 -5 -9 -10 -10 -18 -2 -8 8 -18 4
-35 -16 -13 -16 -21 -23 -18 -18 2 6 -4 11 -14 11 -15 0 -17 -3 -7 -15 9 -11
9 -13 0 -8 -6 4 -18 -1 -26 -13 -7 -11 -16 -17 -20 -14 -3 3 -10 -4 -17 -15
-6 -12 -16 -18 -22 -15 -7 5 -9 1 -5 -9 5 -13 1 -17 -14 -17 -15 0 -19 -5 -15
-15 3 -9 0 -15 -9 -15 -8 0 -15 -5 -15 -11 0 -5 -6 -7 -12 -3 -9 6 -9 3 0 -9
14 -17 8 -42 -8 -32 -5 3 -11 1 -15 -5 -3 -5 0 -10 7 -11 7 0 3 -4 -10 -10
-13 -5 -20 -13 -17 -19 3 -5 2 -10 -3 -10 -6 0 -9 -8 -8 -17 0 -10 -4 -17 -11
-16 -6 1 -14 -4 -17 -13 -3 -8 -2 -12 4 -9 6 3 10 2 10 -4 0 -5 -6 -12 -12
-14 -10 -4 -10 -6 0 -6 18 -1 -10 -31 -30 -32 -7 0 -4 -4 7 -9 11 -5 15 -9 8
-9 -6 -1 -10 -14 -9 -32 1 -16 -1 -32 -6 -35 -5 -3 -6 -10 -3 -15 4 -5 2 -9
-4 -9 -5 0 -11 5 -13 10 -1 6 -2 -45 -2 -112 1 -92 5 -124 16 -132 8 -7 14
-28 13 -53 0 -23 1 -40 3 -38 2 2 10 -2 17 -8 10 -9 10 -15 1 -26 -8 -12 -8
-13 2 -7 8 5 12 0 12 -13 0 -12 5 -21 11 -21 7 0 9 -9 6 -21 -4 -15 -2 -19 9
-15 9 4 14 -1 14 -15 0 -12 4 -17 11 -13 8 4 8 0 0 -15 -7 -12 -8 -21 -4 -20
20 3 34 -2 28 -11 -3 -5 1 -10 9 -10 9 0 16 -7 16 -16 0 -8 5 -12 10 -9 6 3
10 2 10 -3 0 -12 55 -72 67 -72 5 0 15 -11 21 -25 6 -14 18 -25 26 -25 8 0 20
-8 26 -17 10 -16 11 -15 7 5 -3 12 -1 20 4 16 5 -3 9 -10 9 -15 0 -18 25 -36
48 -34 12 1 30 -5 40 -12 15 -12 14 -13 -8 -3 -22 10 -23 10 -7 -3 9 -8 28
-13 42 -12 14 2 25 -1 25 -6 0 -5 5 -9 11 -9 5 0 7 5 3 12 -4 7 -3 8 5 4 6 -4
9 -11 6 -16 -3 -5 -1 -11 5 -15 5 -3 10 -2 10 3 0 5 7 9 15 9 8 0 12 -4 9 -9
-8 -12 10 -10 24 4 8 8 12 8 12 1 0 -6 11 -10 25 -9 14 0 25 5 25 11 0 5 5 4
12 -3 9 -9 15 -9 27 1 12 9 13 9 7 0 -4 -8 -1 -13 9 -13 10 0 13 5 9 13 -6 9
-4 9 8 -1 11 -9 18 -10 23 -2 4 7 12 7 26 0 14 -8 19 -7 19 2 0 8 3 9 8 3 8
-12 73 -15 66 -3 -3 4 1 8 8 8 9 0 9 3 -2 10 -21 13 -3 13 22 -1 16 -8 19 -8
13 1 -5 9 -1 10 14 5 13 -4 21 -2 21 5 0 6 5 8 12 4 7 -5 9 -2 6 7 -5 12 1 14
22 11 15 -2 31 1 34 7 4 6 13 11 19 11 7 0 6 -4 -3 -10 -11 -7 2 -9 41 -8 40
2 61 -2 72 -14 9 -8 13 -19 9 -23 -4 -5 0 -4 8 1 22 13 50 15 50 4 0 -5 7 -7
15 -4 10 4 15 0 15 -12 0 -16 2 -17 10 -4 6 10 10 11 10 3 0 -13 26 -13 48 0
7 5 12 3 12 -3 0 -6 5 -8 11 -5 6 4 8 9 5 12 -3 3 -1 15 5 26 7 12 7 17 1 13
-6 -4 -9 9 -6 34 3 31 1 39 -9 34 -9 -6 -8 -3 1 8 10 13 10 18 1 24 -8 5 -9 3
-4 -6 5 -9 4 -11 -4 -6 -9 6 -9 11 1 24 10 12 10 14 1 8 -7 -4 -13 -3 -13 3 0
5 -3 18 -6 28 -5 15 -4 16 6 3 10 -13 11 -12 6 3 -3 10 -6 25 -6 33 0 8 -5 14
-11 14 -5 0 -7 -5 -3 -12 4 -6 3 -8 -3 -5 -5 3 -9 27 -8 52 1 25 -3 45 -9 45
-6 0 0 7 12 16 13 9 21 22 19 28 -3 7 -1 19 5 27 7 11 8 9 3 -6 -5 -16 -4 -17
6 -8 7 7 13 28 13 48 1 24 6 37 18 41 14 4 16 9 8 24 -7 13 -7 21 2 26 7 5 8
3 3 -6 -5 -9 -4 -11 3 -6 9 5 8 12 -1 27 -10 16 -9 21 3 29 9 6 10 10 3 10
-14 0 -13 40 2 40 5 0 3 5 -5 10 -12 8 -13 13 -2 30 16 27 15 33 -4 26 -13 -5
-14 -3 -7 6 5 7 9 22 8 33 0 11 3 28 8 39 6 13 6 16 -2 12 -15 -10 -14 17 2
33 10 11 9 12 -1 6 -10 -5 -12 0 -9 25 4 25 3 29 -8 20 -9 -8 -14 -6 -19 5 -4
11 -2 14 7 9 7 -5 6 -1 -2 10 -13 15 -13 19 -1 26 12 7 11 10 -3 16 -10 3 -22
15 -28 26 -9 16 -8 19 3 12 10 -6 11 -5 1 8 -7 8 -10 18 -6 22 4 4 0 4 -9 1
-13 -5 -16 -1 -13 20 2 19 -3 29 -17 34 -10 4 -25 18 -32 31 -7 14 -18 24 -25
22 -7 -1 -11 3 -9 10 6 16 -19 41 -32 33 -5 -3 -8 0 -5 7 3 7 -4 19 -16 26
-15 10 -19 10 -14 1 5 -8 4 -10 -3 -5 -7 4 -12 14 -12 23 0 9 -3 14 -6 10 -8
-7 -33 16 -28 25 2 4 -1 10 -7 14 -8 5 -9 3 -4 -6 5 -8 3 -11 -6 -8 -8 3 -13
14 -12 24 1 10 0 13 -3 7 -4 -9 -11 -10 -23 -3 -10 5 -21 6 -25 2 -4 -3 -4 1
0 11 5 14 0 17 -26 17 -22 0 -29 4 -24 13 5 7 0 6 -11 -3 -10 -8 -16 -10 -13
-5 3 6 0 16 -8 23 -8 7 -14 9 -14 4 0 -5 -7 -9 -15 -9 -8 0 -15 5 -15 11 0 6
-5 4 -10 -4 -9 -13 -10 -13 -10 0 0 13 -1 13 -10 0 -8 -13 -10 -12 -10 3 0 10
-4 15 -10 12 -5 -3 -10 -2 -10 3 0 6 -16 10 -35 10 -20 0 -35 -5 -35 -11 0 -9
-3 -9 -8 -1 -8 13 -61 13 -81 0 -10 -6 -12 -6 -7 2 5 8 -2 12 -19 12 -18 0
-24 -4 -19 -12 5 -9 2 -9 -9 1 -14 11 -17 11 -17 0 0 -11 -2 -11 -10 1 -5 8
-10 11 -11 5z m-532 -790 c0 -8 -4 -12 -9 -9 -5 3 -6 10 -3 15 9 13 12 11 12
-6z"/>
<path d="M7055 5941 c-3 -5 -2 -12 3 -15 5 -3 9 1 9 9 0 17 -3 19 -12 6z"/>
<path d="M7165 4500 c3 -5 8 -10 11 -10 2 0 4 5 4 10 0 6 -5 10 -11 10 -5 0
-7 -4 -4 -10z"/>
<path d="M7825 3541 c-3 -5 0 -13 6 -17 7 -4 9 -3 5 4 -3 5 0 13 6 15 9 4 10
6 1 6 -6 1 -14 -3 -18 -8z"/>
<path d="M7292 1891 c-5 -4 -11 -13 -15 -23 -8 -21 21 -18 38 5 14 20 26 12
18 -11 -4 -10 -3 -14 1 -11 4 4 8 15 10 26 3 14 -2 19 -20 19 -13 0 -28 -2
-32 -5z m10 -23 c-7 -7 -12 -8 -12 -2 0 14 12 26 19 19 2 -3 -1 -11 -7 -17z"/>
<path d="M7246 1882 c-3 -5 1 -9 9 -9 8 0 15 4 15 9 0 4 -4 8 -9 8 -6 0 -12
-4 -15 -8z"/>
<path d="M7380 1873 c0 -19 18 -25 37 -13 17 11 16 11 -1 5 -11 -3 -23 0 -28
7 -5 9 -8 10 -8 1z"/>
<path d="M7354 1849 c-4 -7 -3 -9 4 -5 5 3 13 0 15 -6 4 -9 6 -10 6 -1 1 17
-16 25 -25 12z"/>
<path d="M7289 1824 c-13 -14 -19 -24 -12 -22 6 2 11 -1 11 -6 0 -5 8 -14 18
-19 13 -7 21 -5 30 8 7 10 11 21 9 26 -3 4 0 10 5 12 6 3 5 4 -2 3 -7 -2 -14
-8 -14 -14 -1 -7 -2 -16 -3 -22 0 -5 -6 -10 -12 -10 -6 0 -9 7 -6 15 4 8 2 17
-4 20 -5 4 -7 11 -3 16 3 5 10 6 16 3 7 -4 8 -2 4 4 -9 16 -9 16 -37 -14z"/>
<path d="M7425 1840 c3 -5 8 -10 11 -10 2 0 4 5 4 10 0 6 -5 10 -11 10 -5 0
-7 -4 -4 -10z"/>
<path d="M7448 1832 c-4 -12 -2 -20 3 -16 5 3 9 -2 9 -10 0 -19 -23 -17 -30 2
-3 8 -10 13 -14 12 -5 -1 -12 4 -16 10 -5 8 -9 7 -13 -3 -4 -10 0 -14 11 -12
9 1 20 -5 23 -14 7 -19 1 -41 -12 -41 -4 0 -6 6 -3 14 6 16 -19 16 -33 1 -4
-4 -3 -5 3 -2 7 4 14 1 17 -7 6 -15 -24 -17 -35 -1 -4 5 -10 6 -14 2 -4 -4 1
-13 11 -21 18 -13 17 -13 -8 -13 -15 0 -24 3 -21 8 3 5 0 9 -6 9 -6 0 -8 -11
-6 -25 3 -15 1 -23 -5 -20 -5 4 -7 10 -4 15 3 5 1 11 -4 14 -5 4 -12 2 -16 -3
-3 -6 -11 -9 -18 -7 -7 1 -9 1 -5 -1 5 -3 3 -13 -2 -24 -6 -10 -9 -19 -8 -20
25 -7 38 -4 42 8 3 8 10 11 16 8 6 -3 13 1 16 10 5 12 9 13 20 4 8 -6 14 -8
14 -4 0 4 8 1 17 -6 10 -8 14 -9 10 -2 -4 6 -2 15 3 18 7 5 5 12 -7 22 -17 14
-17 14 2 8 54 -18 65 -16 65 10 0 17 -4 24 -12 19 -7 -5 -8 -3 -4 5 5 7 11 10
14 7 3 -3 11 -1 18 5 8 7 14 6 20 -2 4 -7 3 -9 -3 -6 -6 4 -13 0 -17 -8 -8
-22 8 -18 30 7 10 12 13 18 5 13 -11 -6 -13 -4 -8 8 3 9 1 19 -5 23 -7 4 -8 3
-4 -4 4 -7 3 -12 -2 -12 -5 0 -13 10 -19 22 l-10 22 -5 -22z m-153 -119 c-2
-10 -4 -19 -4 -21 -1 -2 -6 0 -11 3 -8 5 -7 11 1 21 15 18 18 18 14 -3z"/>
<path d="M6345 1820 c-3 -6 1 -7 9 -4 18 7 21 14 7 14 -6 0 -13 -4 -16 -10z"/>
<path d="M7356 1793 c-6 -14 -5 -15 5 -6 7 7 10 15 7 18 -3 3 -9 -2 -12 -12z"/>
<path d="M7277 1756 c-4 -10 -1 -13 9 -9 7 3 14 9 14 14 0 14 -17 10 -23 -5z"/>
<path d="M1406 1718 c3 -5 10 -6 15 -3 13 9 11 12 -6 12 -8 0 -12 -4 -9 -9z"/>
<path d="M7226 1714 c7 -3 10 -15 7 -27 -4 -20 -3 -20 7 -4 12 19 6 37 -13 36
-9 0 -9 -2 -1 -5z"/>
<path d="M1360 1696 c0 -2 8 -10 18 -17 15 -13 16 -12 3 4 -13 16 -21 21 -21
13z"/>
<path d="M1411 1684 c0 -11 3 -14 6 -6 3 7 2 16 -1 19 -3 4 -6 -2 -5 -13z"/>
<path d="M7201 1677 c-13 -21 -12 -21 5 -5 10 10 16 20 13 22 -3 3 -11 -5 -18
-17z"/>
<path d="M1341 1674 c0 -11 3 -14 6 -6 3 7 2 16 -1 19 -3 4 -6 -2 -5 -13z"/>
<path d="M7133 1666 c0 -17 23 -15 40 4 10 12 9 12 -4 2 -10 -8 -19 -8 -26 -1
-6 6 -10 5 -10 -5z"/>
<path d="M1316 1661 c-4 -6 -2 -11 3 -11 6 0 11 -8 12 -17 0 -10 3 -13 5 -6 8
18 -11 49 -20 34z"/>
<path d="M1375 1630 c-4 -6 -10 -8 -14 -6 -4 3 -8 -5 -8 -16 -1 -11 -1 -19 0
-17 1 2 11 14 21 27 11 12 16 22 13 22 -3 0 -9 -5 -12 -10z"/>
<path d="M1435 1621 c-3 -5 -2 -12 3 -15 5 -3 9 1 9 9 0 17 -3 19 -12 6z"/>
<path d="M1380 1599 c0 -5 5 -7 10 -4 6 3 10 8 10 11 0 2 -4 4 -10 4 -5 0 -10
-5 -10 -11z"/>
</g>
</svg>
